<svg width="58" height="57" viewBox="0 0 58 57" fill="none" xmlns="http://www.w3.org/2000/svg"> <line x1="6.53833" y1="3.71729" x2="51.5383" y2="3.71729" stroke="#fff" stroke-width="2"></line> <line x1="6.53833" y1="11.7173" x2="51.5383" y2="11.7173" stroke="#fff" stroke-width="2"></line> <line x1="6.53833" y1="19.7173" x2="51.5383" y2="19.7173" stroke="#fff" stroke-width="2"></line> <path d="M1.88658 46.7173V36.4133H4.06258L7.08658 42.6053L10.1106 36.4133H12.2706V46.7173H10.1106V40.0133L7.71058 44.9413H6.46258L4.04658 40.0133V46.7173H1.88658ZM18.5697 46.7173V36.4133H25.9617V38.0933H20.7297V40.7333H25.3697V42.3973H20.7297V45.0533H25.9617V46.7173H18.5697ZM31.9403 46.7173V36.4133H33.8123L38.6923 43.2773V36.4133H40.8523V46.7173H38.9803L34.1003 39.8533V46.7173H31.9403ZM51.6827 46.8773C50.264 46.8773 49.1387 46.536 48.3067 45.8533C47.4854 45.16 47.0747 44.1573 47.0747 42.8453V36.4133H49.2347V42.6853C49.2347 43.4746 49.448 44.0666 49.8747 44.4613C50.3014 44.8453 50.904 45.0373 51.6827 45.0373C52.4614 45.0373 53.0587 44.8453 53.4747 44.4613C53.9014 44.0666 54.1147 43.4746 54.1147 42.6853V36.4133H56.2747V42.8453C56.2747 44.1573 55.864 45.16 55.0427 45.8533C54.2214 46.536 53.1014 46.8773 51.6827 46.8773Z" fill="#fff"></path> </svg>