<svg width="20" height="20" viewBox="0 0 20 20" fill="none" xmlns="http://www.w3.org/2000/svg">
<g clip-path="url(#clip0_12_786)">
<path d="M15.406 0H5.21808C2.73574 0 0.723404 2.01234 0.723404 4.49468V14.6826C0.723404 17.165 2.73574 19.1773 5.21808 19.1773H15.406C17.8884 19.1773 19.9007 17.165 19.9007 14.6826V4.49468C19.9007 2.01234 17.8884 0 15.406 0Z" fill="#5865F2"/>
<mask id="mask0_12_786" style="mask-type:luminance" maskUnits="userSpaceOnUse" x="2" y="3" width="16" height="13">
<path d="M2.82092 3.82031H17.8032V15.4263H2.82092V3.82031Z" fill="white"/>
</mask>
<g mask="url(#mask0_12_786)">
<path d="M15.504 4.8539C14.5327 4.40802 13.5076 4.09006 12.4544 3.908C12.4449 3.90623 12.435 3.90752 12.4262 3.91169C12.4174 3.91586 12.4101 3.92269 12.4055 3.93122C12.2738 4.16539 12.1278 4.47103 12.0257 4.7112C10.8741 4.53875 9.7285 4.53875 8.60056 4.7112C8.49838 4.46564 8.34721 4.16539 8.21491 3.93122C8.21002 3.92287 8.20272 3.91618 8.19396 3.91204C8.18521 3.9079 8.17541 3.90649 8.16585 3.908C7.1126 4.08969 6.08747 4.40767 5.11628 4.8539C5.10797 4.85743 5.10096 4.86345 5.09621 4.87113C3.1539 7.7729 2.62188 10.6034 2.88287 13.3987C2.8836 13.4056 2.8857 13.4122 2.88905 13.4183C2.89239 13.4243 2.89692 13.4296 2.90235 13.4338C4.18379 14.3749 5.42514 14.9463 6.64342 15.3249C6.6529 15.3278 6.66302 15.3276 6.67241 15.3246C6.68181 15.3215 6.69004 15.3156 6.69601 15.3077C6.9842 14.9141 7.24107 14.4992 7.46138 14.0628C7.46442 14.0569 7.46615 14.0503 7.46646 14.0436C7.46678 14.0369 7.46567 14.0302 7.46322 14.024C7.46076 14.0178 7.45701 14.0121 7.45221 14.0074C7.44742 14.0027 7.44168 13.9991 7.43539 13.9968C7.02787 13.8422 6.6399 13.6538 6.2667 13.4398C6.2599 13.4358 6.25419 13.4302 6.25007 13.4234C6.24596 13.4167 6.24356 13.4091 6.2431 13.4012C6.24263 13.3933 6.24411 13.3855 6.2474 13.3783C6.25069 13.3711 6.2557 13.3649 6.26198 13.3601C6.34071 13.3012 6.41808 13.2406 6.49405 13.1782C6.5007 13.1727 6.50876 13.1692 6.51731 13.168C6.52586 13.1668 6.53456 13.1681 6.54244 13.1716C8.99444 14.2911 11.6489 14.2911 14.0719 13.1716C14.0798 13.1679 14.0886 13.1664 14.0973 13.1675C14.106 13.1686 14.1142 13.1721 14.121 13.1776C14.197 13.2403 14.2746 13.3012 14.3537 13.3601C14.36 13.3648 14.365 13.371 14.3684 13.3782C14.3717 13.3853 14.3732 13.3932 14.3728 13.401C14.3724 13.4089 14.3701 13.4166 14.366 13.4233C14.362 13.4301 14.3563 13.4357 14.3496 13.4398C13.9761 13.6578 13.585 13.844 13.1803 13.9962C13.174 13.9986 13.1683 14.0023 13.1635 14.0071C13.1588 14.0119 13.1551 14.0176 13.1527 14.0239C13.1503 14.0301 13.1492 14.0369 13.1496 14.0436C13.15 14.0503 13.1518 14.0569 13.1549 14.0628C13.379 14.4957 13.6346 14.9116 13.9196 15.3071C13.9254 15.3152 13.9336 15.3213 13.943 15.3245C13.9524 15.3277 13.9626 15.3278 13.9722 15.3249C15.1964 14.9463 16.4377 14.3749 17.7192 13.4338C17.7247 13.4298 17.7293 13.4246 17.7326 13.4187C17.736 13.4127 17.7381 13.4061 17.7387 13.3993C18.0511 10.1676 17.2154 7.36029 15.5235 4.87173C15.5193 4.86365 15.5124 4.85732 15.504 4.8539ZM7.82755 11.6967C7.0893 11.6967 6.48102 11.019 6.48102 10.1866C6.48102 9.35428 7.07754 8.67656 7.82755 8.67656C8.5834 8.67656 9.18577 9.36027 9.17393 10.1866C9.17393 11.019 8.57756 11.6967 7.82755 11.6967ZM12.8059 11.6967C12.0676 11.6967 11.4594 11.019 11.4594 10.1866C11.4594 9.35428 12.0558 8.67656 12.8059 8.67656C13.5617 8.67656 14.1641 9.36027 14.1523 10.1866C14.1523 11.019 13.5617 11.6967 12.8059 11.6967Z" fill="white"/>
</g>
</g>
<defs>
<clipPath id="clip0_12_786">
<rect width="19.1773" height="19.1773" fill="white" transform="translate(0.723404)"/>
</clipPath>
</defs>
</svg>
