<svg width="20" height="20" viewBox="0 0 20 20" fill="none" xmlns="http://www.w3.org/2000/svg">
<g clip-path="url(#clip0_12_777)">
<path d="M14.965 0H4.58112C2.05104 0 0 2.01234 0 4.49468V14.6826C0 17.165 2.05104 19.1773 4.58112 19.1773H14.965C17.4951 19.1773 19.5461 17.165 19.5461 14.6826V4.49468C19.5461 2.01234 17.4951 0 14.965 0Z" fill="#2078CA"/>
<path d="M3.0114 8.8076C6.7218 7.22198 9.1954 6.17655 10.4322 5.67149C13.9676 4.22926 14.7013 3.97877 15.1805 3.97029C15.2859 3.96863 15.5206 3.99419 15.6737 4.11562C15.8009 4.21804 15.8367 4.35655 15.8546 4.4538C15.8705 4.55095 15.8924 4.77236 15.8745 4.9452C15.6836 6.91941 14.8545 11.7102 14.4329 13.9214C14.2559 14.857 13.904 15.1707 13.564 15.2013C12.8243 15.2681 12.2635 14.7222 11.5477 14.262C10.4282 13.5416 9.7959 13.0933 8.70823 12.3904C7.45155 11.5781 8.2668 11.1316 8.98264 10.402C9.16955 10.211 12.4266 7.30528 12.4882 7.04173C12.4962 7.00876 12.5041 6.88586 12.4286 6.82109C12.355 6.75613 12.2456 6.77837 12.1661 6.79593C12.0528 6.8209 10.2652 7.98124 6.79736 10.2767C6.29031 10.6189 5.83099 10.7857 5.41739 10.7769C4.96403 10.7674 4.08913 10.5249 3.43891 10.3177C2.64354 10.0635 2.00924 9.92911 2.06491 9.4974C2.09275 9.27267 2.40891 9.04267 3.0114 8.8076Z" fill="white"/>
</g>
<defs>
<clipPath id="clip0_12_777">
<rect width="19.5461" height="19.1773" fill="white"/>
</clipPath>
</defs>
</svg>
