<svg width="33" height="33" viewBox="0 0 33 33" fill="none" xmlns="http://www.w3.org/2000/svg">
<g opacity="0.5">
<path fill-rule="evenodd" clip-rule="evenodd" d="M27.4081 15.7491C26.3893 9.95814 24.1116 8.25 22.9 8.25C21.0093 8.25 20.5241 9.6807 16.5001 9.7289C12.476 9.6807 11.9909 8.25 10.1001 8.25C8.88847 8.25 6.60961 9.95814 5.59089 15.7491C5.00991 19.0549 4.37927 23.99 5.88195 24.5825C7.75193 25.3196 8.38603 23.4763 10.4397 21.9186C12.5245 20.3398 13.5247 19.9683 16.5001 19.9683C19.4754 19.9683 20.4756 20.3398 22.5604 21.9186C24.6141 23.4751 25.2482 25.3196 27.1182 24.5825C28.6208 23.99 27.9902 19.0561 27.4081 15.7491ZM11.88 16.5003C11.2673 16.5003 10.6797 16.2526 10.2465 15.8117C9.81331 15.3707 9.56993 14.7727 9.56993 14.1491C9.56993 13.5256 9.81331 12.9275 10.2465 12.4866C10.6797 12.0457 11.2673 11.7979 11.88 11.7979C12.4926 11.7979 13.0802 12.0457 13.5134 12.4866C13.9466 12.9275 14.19 13.5256 14.19 14.1491C14.19 14.7727 13.9466 15.3707 13.5134 15.8117C13.0802 16.2526 12.4926 16.5003 11.88 16.5003ZM19.9651 16.5003C19.6588 16.5003 19.365 16.3765 19.1484 16.156C18.9318 15.9355 18.8101 15.6365 18.8101 15.3247C18.8101 15.0129 18.9318 14.7139 19.1484 14.4935C19.365 14.273 19.6588 14.1491 19.9651 14.1491C20.2714 14.1491 20.5652 14.273 20.7818 14.4935C20.9984 14.7139 21.1201 15.0129 21.1201 15.3247C21.1201 15.6365 20.9984 15.9355 20.7818 16.156C20.5652 16.3765 20.2714 16.5003 19.9651 16.5003ZM22.2752 14.1491C21.9688 14.1491 21.675 14.0253 21.4584 13.8048C21.2418 13.5843 21.1201 13.2853 21.1201 12.9735C21.1201 12.6618 21.2418 12.3627 21.4584 12.1423C21.675 11.9218 21.9688 11.7979 22.2752 11.7979C22.5815 11.7979 22.8753 11.9218 23.0919 12.1423C23.3085 12.3627 23.4302 12.6618 23.4302 12.9735C23.4302 13.2853 23.3085 13.5843 23.0919 13.8048C22.8753 14.0253 22.5815 14.1491 22.2752 14.1491Z" fill="#7651F7"/>
</g>
</svg>
