<svg width="20" height="20" viewBox="0 0 20 20" fill="none" xmlns="http://www.w3.org/2000/svg">
<g clip-path="url(#clip0_12_781)">
<path d="M15.2287 0H5.04078C2.55843 0 0.546097 2.01234 0.546097 4.49468V14.6826C0.546097 17.165 2.55843 19.1773 5.04078 19.1773H15.2287C17.7111 19.1773 19.7234 17.165 19.7234 14.6826V4.49468C19.7234 2.01234 17.7111 0 15.2287 0Z" fill="#55ACEE"/>
<g clip-path="url(#clip1_12_781)">
<path d="M16.5771 5.61274C16.0946 5.82432 15.5829 5.9632 15.0588 6.02477C15.6047 5.70093 16.0238 5.18812 16.2211 4.57711C15.7022 4.88191 15.1345 5.09666 14.5425 5.21208C14.0603 4.70355 13.3733 4.38574 12.613 4.38574C11.1531 4.38574 9.96946 5.55734 9.96946 7.00236C9.96946 7.20748 9.99286 7.40716 10.0379 7.59873C7.84096 7.48957 5.89314 6.44785 4.58932 4.86473C4.36182 5.25119 4.23146 5.70073 4.23146 6.18021C4.23146 7.08806 4.69818 7.88894 5.40745 8.3582C4.98766 8.34519 4.57711 8.23296 4.21007 8.03088C4.20992 8.04184 4.20992 8.0528 4.20992 8.06381C4.20992 9.33161 5.12112 10.3892 6.33037 10.6296C5.9411 10.7344 5.53279 10.7497 5.13662 10.6745C5.47298 11.714 6.44925 12.4705 7.60596 12.4917C6.70126 13.1935 5.56141 13.6118 4.32297 13.6118C4.10956 13.6118 3.89918 13.5994 3.69237 13.5753C4.86221 14.3177 6.2517 14.7509 7.74452 14.7509C12.6069 14.7509 15.2657 10.7636 15.2657 7.30583C15.2657 7.19233 15.2632 7.07949 15.258 6.96729C15.7756 6.59696 16.2222 6.13827 16.5771 5.61274Z" fill="white"/>
</g>
</g>
<defs>
<clipPath id="clip0_12_781">
<rect width="19.1773" height="19.1773" fill="white" transform="translate(0.546097)"/>
</clipPath>
<clipPath id="clip1_12_781">
<rect width="12.8848" height="10.4127" fill="white" transform="translate(3.69237 4.34473)"/>
</clipPath>
</defs>
</svg>
